<?xml version="1.0" standalone="no"?><svg xmlns="http://www.w3.org/2000/svg" data-object-type="netgraph" class="netgraph" id="netgraph" style="width: 100%; height: 100%; position: absolute;"><defs xmlns="http://www.w3.org/1999/xhtml"><style type="text/css"><![CDATA[
.netgraph { font-family: "Helvetica Neue", Helvetica, Arial, sans-serif; }
.ensemble { stroke-width: 1; }
g.node rect { stroke-width: 1; }
g.net rect { stroke-width: 1; }
.netgraph g text { text-anchor: middle; dominant-baseline: text-before-edge; cursor: default !important; }
.netgraph g text:active { cursor: move; }
.netgraph path.conn { stroke: black; stroke-width: 2px; fill: none; }
.netgraph g.excitatory > .conn { stroke: rgb(52, 101, 164); }
.netgraph g.excitatory &gt; .marker { fill: rgb(52, 101, 164); }
.netgraph g.inhibitory &gt; .conn { stroke: rgb(192, 0, 0); }
.netgraph g.inhibitory &gt; .marker { fill: rgb(192, 0, 0); }
.netgraph g.modulatory &gt; .conn { stroke: rgb(142, 182, 39); stroke-dasharray: 1em; }
.netgraph g.modulatory &gt; .marker { fill: rgb(142, 182, 39); }
.minimap { border-radius: 10px / 60px; height: 100%; opacity: 0.85; width: 100%; }
.minimap path.conn { stroke: black; stroke-width: 1px; fill: none; }
rect.view { fill: rgb(217, 237, 247); stroke: rgb(204, 204, 204); }
.recur { stroke: black; stroke-width: 2px; fill: none; }
.netgraph g.passthrough ellipse { stroke-width: 0px; fill: black; }
.netgraph g.passthrough text { text-anchor: middle; dominant-baseline: text-before-edge; }
]]&gt;</style></defs><g/><g><g class="normal"><path class="conn" visibility="visible" d="M 320.38485988401044 293.9930868295525 L 558.6792391795032 294.9260164701022"/><path class="marker" d="M 10 0 L -5 -5 L -5 5 z" visibility="visible" transform="translate(439.5320495317568, 294.45955164982735) rotate(0.22431354884441007)"/></g><g class="normal"><path class="conn" visibility="visible" d="M 558.6792391795032 294.9260164701022 L 771.494296898033 301.22408728966326"/><path class="marker" d="M 10 0 L -5 -5 L -5 5 z" visibility="visible" transform="translate(665.086768038768, 298.0750518798827) rotate(1.695122468894941)"/></g><g class="normal"><path class="conn" visibility="visible" d="M 771.494296898033 301.22408728966326 L 541.879251386534 164.34092031625596"/><path class="marker" d="M 10 0 L -5 -5 L -5 5 z" visibility="visible" transform="translate(656.6867741422834, 232.7825038029596) rotate(-149.19905580035933)"/></g><g class="normal"><path class="conn" visibility="visible" d="M 313.1848629357681 167.99188795823318 L 541.879251386534 164.34092031625596"/><path class="marker" d="M 10 0 L -5 -5 L -5 5 z" visibility="visible" transform="translate(427.532057161151, 166.16640413724457) rotate(-0.9146147837645136)"/></g><g class="modulatory"><path class="conn" visibility="visible" d="M 541.879251386534 164.34092031625596 L 665.0868072509766 298.07506108283997"/><path class="marker" d="M 7.5,0 0,-5 -7.5,0 0,5 z" visibility="visible" transform="translate(665.0868072509766, 298.07506108283997) rotate(47.346025562796626)"/></g><g class="normal"><path class="conn" visibility="visible" d="M 320.38485988401044 293.9930868295525 L 317.8792056101671 417.06015718900244"/><path class="marker" d="M 10 0 L -5 -5 L -5 5 z" visibility="visible" transform="translate(319.1320327470888, 355.5266220092775) rotate(91.16638498089104)"/></g><g class="inhibitory"><path class="conn" visibility="visible" d="M 540.3848598840104 42.2899892953726 L 541.879251386534 164.34092031625596"/><path class="marker" d="M 4,0 C 4,-8 -4,-8 -4,-8 V 8 c 0,0 8,0 8,-8 z" visibility="visible" transform="translate(541.1320556352722, 103.31545480581428) rotate(89.298505574694)"/></g></g><g><g class="node" data-object-type="node" transform="translate(313.1848629357681, 167.99188795823318)"><text transform="translate(0, 17.728846153846156)">Ground Truth</text><rect transform="translate(-74.08301886792452, -17.728846153846156)" width="148.16603773584905" height="35.45769230769231" rx="3.5457692307692312" ry="3.5457692307692312" style="fill: rgb(204, 204, 204); stroke: rgb(131, 131, 131);"/><rect transform="translate(-74.08301886792452, -17.728846153846156)" width="148.16603773584905" height="35.45769230769231" style="fill: transparent;"/></g><g class="ens" data-object-type="ensemble" transform="translate(541.879251386534, 164.34092031625596)"><text transform="translate(0, 22.161057692307693)">error</text><g class="ensemble" transform="scale(1.2450032411408813)" style="fill: rgb(204, 204, 204); stroke: rgb(131, 131, 131); stroke-width: 0.451242;"><circle cx="-12.407" cy="-7.231" r="4.843"/><circle cx="-1.064" cy="0.123" r="4.843"/><circle cx="3.7619999999999996" cy="12.81" r="4.843"/><circle cx="12.454" cy="-0.521" r="4.843"/><circle cx="-11.603" cy="8.663" r="4.843"/><circle cx="2.644" cy="-12.908" r="4.843"/></g><rect transform="translate(-21.49622596153846, -22.161057692307693)" width="42.99245192307692" height="44.32211538461539" style="fill: transparent;"/></g><g class="ens" data-object-type="ensemble" transform="translate(558.6792391795032, 294.9260164701022)"><text transform="translate(0, 22.161057692307693)">pre_ens</text><g class="ensemble" transform="scale(1.2450032411408813)" style="fill: rgb(204, 204, 204); stroke: rgb(131, 131, 131); stroke-width: 0.451242;"><circle cx="-12.407" cy="-7.231" r="4.843"/><circle cx="-1.064" cy="0.123" r="4.843"/><circle cx="3.7619999999999996" cy="12.81" r="4.843"/><circle cx="12.454" cy="-0.521" r="4.843"/><circle cx="-11.603" cy="8.663" r="4.843"/><circle cx="2.644" cy="-12.908" r="4.843"/></g><rect transform="translate(-21.49622596153846, -22.161057692307693)" width="42.99245192307692" height="44.32211538461539" style="fill: transparent;"/></g><g class="ens" data-object-type="ensemble" transform="translate(771.494296898033, 301.22408728966326)"><text transform="translate(0, 22.161057692307693)">post_ens</text><g class="ensemble" transform="scale(1.2450032411408813)" style="fill: rgb(204, 204, 204); stroke: rgb(131, 131, 131); stroke-width: 0.451242;"><circle cx="-12.407" cy="-7.231" r="4.843"/><circle cx="-1.064" cy="0.123" r="4.843"/><circle cx="3.7619999999999996" cy="12.81" r="4.843"/><circle cx="12.454" cy="-0.521" r="4.843"/><circle cx="-11.603" cy="8.663" r="4.843"/><circle cx="2.644" cy="-12.908" r="4.843"/></g><rect transform="translate(-21.49622596153846, -22.161057692307693)" width="42.99245192307692" height="44.32211538461539" style="fill: transparent;"/></g><g class="node" data-object-type="node" transform="translate(320.38485988401044, 293.9930868295525)"><text transform="translate(0, 18.928843102088333)">Input</text><rect transform="translate(-74.08301886792452, -18.928843102088333)" width="148.16603773584905" height="37.857686204176666" rx="3.7857686204176666" ry="3.7857686204176666" style="fill: rgb(204, 204, 204); stroke: rgb(131, 131, 131);"/><rect transform="translate(-74.08301886792452, -18.928843102088333)" width="148.16603773584905" height="37.857686204176666" style="fill: transparent;"/></g><g class="node" data-object-type="node" transform="translate(540.3848598840104, 42.2899892953726)"><text transform="translate(0, 17.728846153846156)">inhibitor</text><rect transform="translate(-74.08301886792452, -17.728846153846156)" width="148.16603773584905" height="35.45769230769231" rx="3.5457692307692312" ry="3.5457692307692312" style="fill: rgb(204, 204, 204); stroke: rgb(131, 131, 131);"/><rect transform="translate(-74.08301886792452, -17.728846153846156)" width="148.16603773584905" height="35.45769230769231" style="fill: transparent;"/></g><g class="node" data-object-type="node" transform="translate(317.8792056101671, 417.06015718900244)"><text transform="translate(0, 17.728846153846156)">display_node</text><rect transform="translate(-74.08301886792452, -17.728846153846156)" width="148.16603773584905" height="35.45769230769231" rx="3.5457692307692312" ry="3.5457692307692312" style="fill: rgb(204, 204, 204); stroke: rgb(131, 131, 131);"/><rect transform="translate(-74.08301886792452, -17.728846153846156)" width="148.16603773584905" height="35.45769230769231" style="fill: transparent;"/></g></g></svg>